<svg xmlns="http://www.w3.org/2000/svg" viewBox="0 0 1600 1200"><defs><style>.cls-1{fill:#ca7358}.cls-2{fill:#ffbe21}.cls-10,.cls-11,.cls-14,.cls-15,.cls-16,.cls-18,.cls-3{fill:none}.cls-3{stroke:#ca7358}.cls-11,.cls-14,.cls-15,.cls-3{stroke-miterlimit:10}.cls-10,.cls-11,.cls-14,.cls-15,.cls-16,.cls-18,.cls-3{stroke-width:4px}.cls-4{fill:#30242a}.cls-5{fill:#ff7235}.cls-6{fill:#f5ebdd}.cls-7{fill:#ffb7d5}.cls-8{fill:#eaa58b}.cls-11{stroke:#f5ebdd}.cls-10,.cls-11,.cls-14,.cls-15,.cls-16,.cls-18{stroke-linecap:round}.cls-10,.cls-16,.cls-18{stroke-linejoin:round}.cls-10{stroke:#a15842}.cls-13{fill:#4756df}.cls-14{stroke:#3ec1f3}.cls-15,.cls-16{stroke:#30242a}.cls-18{stroke:#ffb7d5}.cls-19{fill:#3ec1f3}</style></defs><g id="Layer_5" data-name="Layer 5"><path d="M392.52 1021.78a10.51 10.51 0 01-9.86-14.15l25.78-69.85h41l-47.93 79a10.52 10.52 0 01-8.99 5zM757.48 1021.78a10.51 10.51 0 009.86-14.15l-25.78-69.85h-41l47.93 79a10.52 10.52 0 008.99 5z"/><path class="cls-1" d="M352 730.23h446v233H352z"/><path class="cls-2" d="M382 760.23h386v173H382z"/><path class="cls-3" d="M768.5 847H382"/><circle class="cls-4" cx="575" cy="805.5" r="11"/><circle class="cls-4" cx="575" cy="889.5" r="11"/><circle class="cls-2" cx="490.5" cy="617" r="14.5"/><circle class="cls-2" cx="565.5" cy="617" r="14.5"/><path class="cls-2" d="M528 602.5a12.89 12.89 0 00-5.62 1.29 14.53 14.53 0 10-6.38 16.62 13 13 0 1012-17.91z"/><path class="cls-2" d="M553.93 602.54a14.5 14.5 0 10-13.43 20 15.11 15.11 0 001.51-.08 13 13 0 1011.92-19.88z"/><circle class="cls-2" cx="523" cy="597.5" r="11"/><circle class="cls-2" cx="559.5" cy="575" r="7.5"/><path class="cls-5" d="M468.33 616.5l20 114h14.17l-15.83-114h-18.34zM569 616.5l-15.84 114h14.17l20-114H569z"/><path class="cls-6" d="M544 616.5l-7.48 114h16.64l15.84-114h-25zM486.67 616.5l15.83 114h16.64l-7.47-114h-25z"/><path class="cls-5" d="M511.67 616.5l7.47 114h17.38l7.48-114h-32.33z"/><path class="cls-7" d="M705.89 652.84H893v368.95H625V733.72a80.89 80.89 0 0180.89-80.88z"/><path class="cls-7" d="M912.89 452.78h264.23a80.89 80.89 0 0180.88 80.89v488.11H832V533.67a80.89 80.89 0 0180.89-80.89z"/><path class="cls-7" d="M817.89 751.36h359.23a80.89 80.89 0 0180.88 80.88v189.54H737V832.24a80.89 80.89 0 0180.89-80.88z"/><path class="cls-3" d="M988.5 841.15H770.36M737 832.24v189.54M1258 651.65h-169.14"/><path class="cls-6" d="M354 219.33h446v302H354z"/><path class="cls-4" d="M384 249.33h386v242H384z"/><g id="layer1"><g id="g3235"><path id="path3015" class="cls-5" d="M664.34 399.57c3.44.33 6.87.69 10.3 1.06l7.58-18.69 7.19 20.42q5.55.69 11.07 1.45L687.86 368l12.62-31.17h-10.69l-.11.15-6.82 16.84-6-17h-10.54l10.9 30.92z"/><path id="path3019" class="cls-5" d="M656.35 398.84v-62H645.8V398q5.28.4 10.55.87"/><path id="path3023" class="cls-5" d="M577.09 395.37q4.27 0 8.54.05v-22.79h12.67v-9.7h-12.67v-16.39h14.59v-9.71H575v58.55h2.06"/><path id="path3035" class="cls-5" d="M544.33 396c3.52-.12 7-.23 10.56-.31v-49.15h9.86v-9.71h-30.28v9.71h9.86V396z"/><path id="path3039" class="cls-5" d="M463.64 402.5v-36.94L476.13 401q5.76-.64 11.55-1.22v-63h-10.12v38.32l-13.49-38.27h-10.55v67h.06c3.34-.46 6.7-.9 10.06-1.33"/><path id="path3051" class="cls-5" d="M524.3 346.54v-9.71h-25.2v61.9q12.54-1.08 25.18-1.82v-9.71q-7.31.42-14.58 1v-15.56h12.67v-9.71H509.7v-16.39z"/><path id="path3055" class="cls-5" d="M621.14 386.74v-49.91h-10.6V396q12.65.47 25.19 1.28v-9.71q-7.28-.48-14.59-.82"/></g></g><path class="cls-4" d="M933 604.5s-94 21-142 48c-49.36 27.76-54 66.72-84.81 160.29-13.52 41-20.31 70.44-27.58 90.6L762.5 943c4-7.42 7.56-14.72 10.5-21.5 0 0 38.46-1.71 42.13-53.18 2.74-38.45 4.06-66.91 17.48-95.63l229.3-168.63zM644.2 939.38c-.42.07-.84.15-1.27.21-29.71 4.51-42.11 10.29-47 23.76l124 57.8a6.73 6.73 0 008.29-2.14 6.72 6.72 0 00-1.54-9.44L645 972.5a84.29 84.29 0 00-.8-33.12z"/><path class="cls-8" d="M762.5 943l-83.89-39.61c-4.29 11.9-8.75 20.58-14.86 26.53-5.08 5-11.32 8-19.55 9.46a84.29 84.29 0 01.8 33.12l81.72 37.07a6.67 6.67 0 00-1-.59l-3-1.43c4.86-7 12.49-18.42 20.65-31.62 6.48-10.35 13.19-21.77 19.13-32.93z"/><path stroke-linejoin="round" stroke-linecap="round" stroke="#f5ebdd" stroke-width="4" fill="none" d="M772.31 922.92L685 882"/><path class="cls-4" d="M1109.5 644.91l-3.5-38.54h-69s-116 27.76-165.31 51.41c-49.08 23.52-43.19 78.15-33.94 173.78 4.72 48.75 10.61 82.23 10.3 105.94h91q.75-11.54 1-24.35s35.5-16.81 17-71.31c-12.39-36.5-23.09-60.67-23.09-92.37H1014a95.88 95.88 0 0095.5-104.56zM826.44 982c-23.12 15.72-31.28 26-30 39.75l136.91-.18a5.69 5.69 0 000-11.37H842s-5-16.88-15.56-28.2z"/><path class="cls-8" d="M848.05 937.5c-.17 13.5-2.35 23.84-7.91 32a40.17 40.17 0 01-11.24 10.87l-2.46 1.63c10.57 11.29 15.56 28.2 15.56 28.2h86.48a360.75 360.75 0 007.52-40.7c1.24-9.56 2.32-20.27 3.08-32z"/><path class="cls-10" d="M935 633.5c-22.1 7.06-48.18 15.7-65 24-38.41 18.93-43.31 55.84-39.14 117.3M933 751.84h-24.81"/><path class="cls-11" d="M940 914.84h-93"/><path class="cls-7" d="M1070.89 652.84H1258v368.95H990V733.72a80.89 80.89 0 0180.89-80.88z"/><path class="cls-3" d="M988 749.51v271.08"/><path d="M747 489.5a8.54 8.54 0 00-1.41-.8l1.39.95z" fill="none"/><path class="cls-13" d="M284.5 876.5c-23 0-41.76-13.79-42.47-31v176h85v-176c-.77 17.21-19.5 31-42.53 31z"/><path class="cls-14" d="M243.61 981.67c27.9-3 61.13-22.5 54.89-68.67-5-37-41.5-26.5-20.5 8.5 12.34 20.57 32.63 34.58 47.26 42.63M243.36 940.07c16.63 11.38 46.09 37.52 57.32 79.65M243.26 996.37c10.91 3.23 24.9 10.19 35.43 23.47M273.72 854.66a72.35 72.35 0 01-30.35 28.67"/><path class="cls-4" d="M284.5 876.5c23 0 41.76-13.79 42.47-31H242c.74 17.21 19.47 31 42.5 31z"/><path class="cls-15" d="M260.5 691l23 173M253.14 760.72l26.9 101.83"/><ellipse class="cls-4" cx="332.5" cy="791.76" rx="37.72" ry="10.42" transform="rotate(-23.15 332.513 791.79)"/><ellipse class="cls-4" cx="226.98" cy="807.31" rx="10.01" ry="45.09" transform="rotate(-69.34 226.942 807.278)"/><ellipse class="cls-4" cx="296.32" cy="761.84" rx="30.57" ry="7.75" transform="rotate(-36.99 296.328 761.837)"/><path class="cls-15" d="M313.5 712l-26 160"/><path class="cls-7" d="M270.65 728.58a29 29 0 10-34.47 42.33 54 54 0 0134.47-42.33z"/><path class="cls-11" d="M257.39 746.56a54.26 54.26 0 00-26.67-27.34M253 750.93a53.77 53.77 0 00-34.69-16.35"/><path class="cls-5" d="M236.18 770.91a29 29 0 0034.47-42.33 54 54 0 00-34.47 42.33z"/><path class="cls-7" d="M227.82 672.2a29 29 0 1151.78 17.31 54 54 0 00-51.78-17.31z"/><path class="cls-11" d="M248.65 680.29a54.2 54.2 0 017.9-37.37M254.68 681.63a53.82 53.82 0 0120.56-32.37"/><path class="cls-5" d="M279.6 689.51a29 29 0 01-51.78-17.31 54 54 0 0151.78 17.31z"/><path class="cls-7" d="M297.44 674.23a29 29 0 1129.18 46.13 54 54 0 00-29.18-46.13z"/><path class="cls-11" d="M308.47 693.66a54.23 54.23 0 0129.73-24M312.29 698.52a53.78 53.78 0 0136.39-12.1"/><path class="cls-5" d="M326.62 720.36a29 29 0 01-29.18-46.13 54 54 0 0129.18 46.13z"/><path class="cls-1" d="M1432.87 1018.54a4.12 4.12 0 01-.34.7 3.77 3.77 0 00.34-.7zM1385.21 996.51l-26.21 25h67c3.53 0 5.59-.82 6.51-2.23-5.16.96-35.08-15.77-47.3-22.77z"/><path class="cls-7" d="M1432.53 1019.24zM1432.87 1018.54c3.34-9.41-30.87-38-30.87-38l-16.79 16c12.22 7 42.14 23.73 47.3 22.76a4.12 4.12 0 00.36-.76z"/><path class="cls-1" d="M1428 928.5c-1 5-47 13-47 13l-2.88-19.08-1.12.08 7.46 57s46.54-41 43.54-51z"/><path class="cls-7" d="M1428 928.5c-2.6-8.66-42.64-6.53-49.88-6.08l2.88 19.08s46-8 47-13z"/><path class="cls-16" d="M1372.69 927.94l1.73-36.01M1365.66 924l-9.35-45.93"/><path d="M1213 1021.78l-46.78-62.33 21.78-23c-2-7-11-38-23-48s-23-10-29-8l-.18.06a8.67 8.67 0 00-2 15.21l11.18 9.78s-25 19-25 40c0 14.64 7.9 22.14 15.73 26l-20.73 29s-21 3-62-9c-12.49-3.66-26-10-38.62-15.82 0 13.62-6.26 24.53-15.53 32.56 21.26 8.38 48.32 13.54 69.32 13.54z" fill="#a15842"/><path class="cls-15" d="M1087 1000c3.48 6.71 7.75 13.59 15.28 19.68M1185 933l-8 6"/><path class="cls-6" d="M1014.38 975.68c-21-9.63-39.5-17.54-46.38-8.18-11.75 16 5.37 30.68 30.85 40.74 9.27-8.03 15.58-18.94 15.53-32.56z"/><path class="cls-1" d="M1396 955.47c0-4.24 5.34-9.8 9.54-11.51-7.83-21.46-39.2-40.12-71.54-23.46 0 0-4-20-15-28-10.29-7.49-21-8.23-29-5.23l-.24.09a9.17 9.17 0 00-2.76 15.3l14 12.84-7 13.77a70.64 70.64 0 00-24.62-14.51c-.79 37.41-49.91 53.89-74.38 45.74-8.6-12-15.71-18.16-17.53-19.63l-.47.4s-21-13.77-40 .23c0 0-10-23-22-32.23-10.15-7.81-30-8-35-3l-.15.15a11 11 0 002.09 17.06l14.06 8.79s-36 54 12 89.51h255c38.28 0 47.26-30.71 46.4-55.34-4.53-1.18-13.4-4.35-13.4-10.97z"/><path class="cls-6" d="M1195 960.5c24.47 8.15 73.59-8.33 74.38-45.74a69.62 69.62 0 00-31.38-3.49c-29 3.41-56.7 26.32-60.53 29.6 1.82 1.47 8.93 7.58 17.53 19.63z"/><path class="cls-4" d="M1396 955.47c0 6.62 8.87 9.79 13.4 11a81.37 81.37 0 00-3.4-21.17c-.14-.44-.31-.87-.46-1.31-4.2 1.68-9.54 7.24-9.54 11.48z"/><path class="cls-16" d="M1387.97 957.86l14.22-2.1M1336.54 921c4.07 16.4 9.08 39.32 11 54M1292.5 897l-3.72 5.57M1299.5 903l-3.92 5.87M1084.5 915l-3.76 5.64M1092.5 920l-4.06 6.08M1292.48 928.65c-18.19 33.24-33.21 68.49-4.77 91.81"/><path class="cls-15" d="M1205 984c-4-18-16.31-40.46-32-47-12-5-24-4-35 2 0 0-4.75-10.19-8.57-15.77"/><path class="cls-16" d="M1380.37 946.23s3 9.36 7.6 11.63c0 0-3.26 4.67-3.8 13.71"/><path class="cls-1" d="M1255 911.5s-8 14-21 13-12-20 3-31a29.25 29.25 0 0121-3.38c12.78 2.79 20.26 28.53 20.26 28.53S1265 912.5 1255 911.5z"/><path class="cls-18" d="M1368 831.96l16.46-10.06-7.32 25.6 19.36-11.5M1403.96 790.43l17.33-1.38-16.32 17.61 19.53-1.36"/><path class="cls-16" d="M1232.45 914.92l-.02 7.58M1241.6 914.05l-.02 7.51M1137.12 890.29l-3.62 3.87M1144.2 895.53l-4.31 4.61"/><path class="cls-13" d="M779.3 511.94L747 489.65l-1.39-1c-8.55-4-31.76-2.85-30.59-12.19.25-2 2.6-3.51 6.31-4.55l-46.94-32.31a8 8 0 00-11.07 2l-5 7.19a13.49 13.49 0 01-15.22 22.07l-5.72 8.29a8 8 0 002 11.08l104.9 72.34a8 8 0 0011.08-2l9.14-13.25L781.34 523a8 8 0 00-2.04-11.06zm-60.8 18.56A21.5 21.5 0 11740 509a21.51 21.51 0 01-21.5 21.5zm47.5-3.63l-12.5 18a3.61 3.61 0 01-5 .9 3.6 3.6 0 01-.91-5l12.51-18a3.6 3.6 0 115.92 4.11z"/><circle class="cls-19" cx="718.5" cy="509" r="21.5"/><path class="cls-19" d="M663 459a13.45 13.45 0 00-4.64-10.17l-15.22 22.07a13.36 13.36 0 006.36 1.6A13.5 13.5 0 00663 459z"/><path class="cls-4" d="M765.07 521.85a3.61 3.61 0 00-5 .91l-12.51 18a3.6 3.6 0 00.91 5 3.61 3.61 0 005-.9l12.5-18a3.6 3.6 0 00-.9-5.01z"/><path class="cls-8" d="M730 552.5s-9 10-18 1c0 0-11 3-15-6 0 0-9 4-13-5-.26-.58-5.2 2.16-10-4-7-9-11-34-5-35 10.3-1.72 14.66 17.6 14.84 17 2.25-7.61 6.15-14 10.16-14 7 0 8 7 8 7s4.23-5.65 10-4c7 2 5 11 5 11s6.42-4.26 10 2c4 7-4 16-3 26z"/><path class="cls-10" d="M716.42 518.94c-4.27 7.46-11 21.92-6.76 33.1M701.17 512c-2.71 6.4-8.39 21.92-5.94 34.43M682.73 518c-1.32 6.4-2.29 14.93-.59 22.72"/><path class="cls-8" d="M1060 369.5c12-4 26-21 16-35-13.25-18.56-36 6-36 6a59.77 59.77 0 01-21-28c-3 1-12 2-19 0s-3 8-5 22c-.27 1.92-.59 3.77-.94 5.55 0 0-9.06-.55-10.06 3.45-1.24 4.94 6.69 10.25 6.69 10.25-3.1 11.17-5.68 19.76-1.69 29.75 3.52 8.81 11 19 35 16l-1.37 10.5h71.57c.4-4.19.87-9.18 1.37-14.57-8.12-2.73-28.44-10.87-35.57-25.93z"/><path class="cls-13" d="M1068 279.5c-29-13-56 7-56 7s-24.66-7.1-26 9c-1 12 14 17 14 17 7 2 16 1 19 0a59.77 59.77 0 0021 28s22.75-24.56 36-6c10 14-4 31-16 35 7.13 15.06 27.45 23.2 35.57 25.93 1.76-19.07 3.87-43.22 4.43-54.93.91-19.09-1-47.09-32-61z"/><path class="cls-8" d="M869 499.5s-70-20-97-26c-16.42-3.65-39.64-4.64-50.69-1.55-3.71 1-6.06 2.54-6.31 4.55-1.17 9.34 22 8.18 30.59 12.19l33.71 23.25a8 8 0 012 11.08l-16.76 24.3A254.74 254.74 0 00847 573.5c26.53 3.67 58.73-11.09 81.78-24.67L890.11 485c-12.43 8.48-21.11 14.5-21.11 14.5z"/><path class="cls-5" d="M1094.2 410h-71.57l-1.63 12.5s-35.15-.74-60 15c-18.78 11.89-50.08 33.18-70.89 47.45l38.67 63.88A293.47 293.47 0 00959 528.5l-26 76h173l-13-182s.49-4.95 1.2-12.5z"/><path class="cls-10" d="M1019 425l-1.5 12M971.5 487L958 527M998.85 363c1.65 1 7.85 1.83 10.36-2.94"/><circle cx="1011" cy="336.5" r="3"/><path class="cls-10" d="M1063 346.5l-11 7M1035.86 411.98l-1.61 12.97M1050.85 411.98l-1.6 12.97M1065.84 411.98l-1.6 12.97M1024.73 401.26c4.77-.84 11.41-2.59 16.77-6.26"/><path class="cls-8" d="M1099.22 551.5l1.78 37s-84.29 23.62-113.08 45.22c-13 9.75-29 28.09-34.92 35.78s-30.28 43-20 44 26.13-21.17 26.13-21.17S949 719.5 952 728.5s12.3 2.79 12.3 2.79c8.7 10.21 16.42-1.06 16.42-1.06 15.28 11.27 30.82-44.1 30.82-44.1a70.79 70.79 0 0022.14-16.94s85.62 3.39 119.32-24.69c16.87-14.06 25.2-51.52 25.53-93z"/><path class="cls-5" d="M1165 456.5c-7.41-22.59-32-34-47-34h-25l6.22 129h79.31c.25-32.28-4.34-66.99-13.53-95z"/><path class="cls-10" d="M1101.43 550.6l-2.93-61.6M1102.59 585.95l14.91-3.95M956.78 694.06c3.14-8.4 7.93-20.85 11.72-29.06M982.5 672c-10.72 23.09-17 49-19 58.36M997.5 680c-6.86 15.79-13.19 36.84-16.63 49.1"/></g></svg>